<?xml version="1.0"?>
<svg xmlns="http://www.w3.org/2000/svg" width="24" height="24" viewBox="0 0 24 24" fill="none"
>
  <path fill-rule="evenodd" clip-rule="evenodd" stroke-rule="#e7fb81"
    d="M13.9237 3.08008C12.0044 2.66617 10.0029 2.88234 8.21625 3.69647C6.42962 4.51061 4.95322 5.87929 4.00633 7.59925C3.05944 9.31921 2.69256 11.2987 2.96017 13.2438C3.22778 15.1888 4.11561 16.9957 5.49181 18.396C6.868 19.7964 8.65916 20.7155 10.5993 21.0169C12.5394 21.3183 14.525 20.9859 16.2611 20.069C17.9973 19.1522 19.3914 17.6998 20.2365 15.9276C21.0816 14.1554 21.3325 12.1579 20.952 10.2317C20.9119 10.0285 21.0441 9.8313 21.2473 9.79116C21.4504 9.75103 21.6477 9.8832 21.6878 10.0864C22.0996 12.1709 21.828 14.3326 20.9135 16.2504C19.9989 18.1683 18.4902 19.74 16.6113 20.7322C14.7325 21.7244 12.5837 22.0842 10.4841 21.758C8.38457 21.4318 6.44619 20.4372 4.95689 18.9217C3.46758 17.4063 2.50678 15.4509 2.21717 13.346C1.92757 11.2411 2.3246 9.09887 3.34932 7.23754C4.37404 5.37622 5.97178 3.89504 7.90525 3.01399C9.83873 2.13294 12.0048 1.89901 14.0818 2.34694C14.2843 2.3906 14.413 2.59011 14.3693 2.79257C14.3257 2.99502 14.1262 3.12374 13.9237 3.08008ZM12.375 8.00002C12.375 7.79292 12.2071 7.62502 12 7.62502C11.7929 7.62502 11.625 7.79292 11.625 8.00002V8.63182C10.899 8.66763 10.1811 8.84506 9.62969 9.15876C9.07549 9.47404 8.62498 9.97066 8.62498 10.6452V10.7664V10.844L8.65581 10.9153C8.89819 11.4755 9.29402 11.7873 9.7728 11.9481C10.2235 12.0995 10.7458 12.1153 11.2455 12.1216L11.4057 12.1234C12.3819 12.134 13.3737 12.1448 14.2855 12.74C14.5257 13.0138 14.6096 13.2288 14.623 13.3833C14.636 13.5331 14.5874 13.6745 14.4595 13.8178C14.1803 14.1304 13.5709 14.3903 12.7919 14.4979C12.0293 14.6033 11.192 14.5496 10.531 14.3221C9.86351 14.0923 9.45825 13.7203 9.36868 13.2377C9.33089 13.0341 9.13517 12.8996 8.93155 12.9374C8.72792 12.9752 8.59348 13.1709 8.63128 13.3746C8.7917 14.2389 9.49949 14.7602 10.2869 15.0312C10.7196 15.1802 11.2016 15.2641 11.6889 15.2905C11.6485 15.3504 11.625 15.4224 11.625 15.5V16C11.625 16.2071 11.7929 16.375 12 16.375C12.2071 16.375 12.375 16.2071 12.375 16V15.5C12.375 15.4237 12.3522 15.3527 12.313 15.2935C12.5101 15.2848 12.7049 15.2671 12.8945 15.2409C13.7327 15.1251 14.561 14.8301 15.0189 14.3173C15.2594 14.0479 15.4042 13.7089 15.3702 13.3183C15.3372 12.9388 15.1401 12.5648 14.8106 12.202L14.78 12.1683L14.7423 12.143C13.6272 11.3931 12.4092 11.3822 11.4477 11.3736C11.3823 11.373 11.318 11.3724 11.255 11.3717C10.7403 11.3651 10.334 11.3454 10.0115 11.2371C9.73656 11.1448 9.52471 10.9887 9.37498 10.6843V10.6452C9.37498 10.3499 9.5667 10.0575 10.0005 9.81065C10.4306 9.56601 11.036 9.40881 11.6844 9.37985C12.3314 9.35096 12.987 9.45132 13.5152 9.68793C14.0403 9.9232 14.4154 10.2801 14.5716 10.761C14.6355 10.958 14.8471 11.0658 15.0441 11.0018C15.241 10.9378 15.3489 10.7263 15.2849 10.5293C15.0459 9.79334 14.4823 9.29941 13.8218 9.00348C13.3776 8.80447 12.8789 8.68916 12.375 8.64543V8.00002ZM19 8.3125C19.2071 8.3125 19.375 8.14461 19.375 7.9375C19.375 7.73039 19.2071 7.5625 19 7.5625H17.0222L21.2668 3.26347C21.4124 3.11609 21.4108 2.87866 21.2635 2.73315C21.1161 2.58764 20.8787 2.58915 20.7332 2.73653L16.5 7.02395V5C16.5 4.79289 16.3321 4.625 16.125 4.625C15.9179 4.625 15.75 4.79289 15.75 5V7.9375C15.75 8.14461 15.9179 8.3125 16.125 8.3125H19Z"
    fill="#e7fb81" />
</svg>